<svg width="201" height="48" viewBox="0 0 201 48" fill="none" xmlns="http://www.w3.org/2000/svg">
<g clip-path="url(#clip0_5_15)">
<path d="M83 4.72223C83 5.48924 82.3781 6.11112 81.6111 6.11112C81.6025 6.11112 81.5953 6.10671 81.5867 6.1066L79.8325 15.7559C79.7361 16.2813 79.2778 16.6667 78.7396 16.6667H67.2604C66.7236 16.6667 66.2632 16.2826 66.1674 15.7545L64.4135 6.10764C64.4049 6.10764 64.3976 6.11112 64.3576 6.11112C63.5906 6.11112 62.9688 5.48924 62.9688 4.72223C62.9688 3.95521 63.6219 3.33334 64.3576 3.33334C65.0934 3.33334 65.7465 3.95521 65.7465 4.72223C65.7465 5.03466 65.6243 5.30868 65.4501 5.54063L68.5623 8.03021C69.1147 8.47223 69.9338 8.29216 70.2501 7.65938L72.2501 3.65938C71.8576 3.41459 71.5799 2.99792 71.5799 2.5C71.5799 1.73299 72.2326 1.11111 73 1.11111C73.7674 1.11111 74.3576 1.73299 74.3576 2.5C74.3576 2.99792 74.0811 3.41459 73.6875 3.65973L75.6875 7.65973C76.0039 8.29237 76.8233 8.47223 77.3753 8.03056L80.4875 5.54098C80.3438 5.30903 80.2222 5.00348 80.2222 4.72223C80.2222 3.95486 80.8438 3.33334 81.6111 3.33334C82.3785 3.33334 83 3.95486 83 4.72223Z" fill="white"/>
</g>
<path d="M12.168 29.1L8.784 32.628V39H2.988V13.8H8.784V25.572L19.944 13.8H26.424L15.984 25.032L27.036 39H20.232L12.168 29.1ZM28.8889 19.632H34.5049V39H28.8889V19.632ZM31.6969 16.932C30.6649 16.932 29.8249 16.632 29.1769 16.032C28.5289 15.432 28.2049 14.688 28.2049 13.8C28.2049 12.912 28.5289 12.168 29.1769 11.568C29.8249 10.968 30.6649 10.668 31.6969 10.668C32.7289 10.668 33.5689 10.956 34.2169 11.532C34.8649 12.108 35.1889 12.828 35.1889 13.692C35.1889 14.628 34.8649 15.408 34.2169 16.032C33.5689 16.632 32.7289 16.932 31.6969 16.932ZM51.489 19.344C53.889 19.344 55.821 20.064 57.285 21.504C58.773 22.944 59.517 25.08 59.517 27.912V39H53.901V28.776C53.901 27.24 53.565 26.1 52.893 25.356C52.221 24.588 51.249 24.204 49.977 24.204C48.561 24.204 47.433 24.648 46.593 25.536C45.753 26.4 45.333 27.696 45.333 29.424V39H39.717V19.632H45.081V21.9C45.825 21.084 46.749 20.46 47.853 20.028C48.957 19.572 50.169 19.344 51.489 19.344ZM84.7986 19.632V35.76C84.7986 39.312 83.8746 41.952 82.0266 43.68C80.1786 45.408 77.4786 46.272 73.9266 46.272C72.0546 46.272 70.2786 46.044 68.5986 45.588C66.9186 45.132 65.5266 44.472 64.4226 43.608L66.6546 39.576C67.4706 40.248 68.5026 40.776 69.7506 41.16C70.9986 41.568 72.2466 41.772 73.4946 41.772C75.4386 41.772 76.8666 41.328 77.7786 40.44C78.7146 39.576 79.1826 38.256 79.1826 36.48V35.652C77.7186 37.26 75.6786 38.064 73.0626 38.064C71.2866 38.064 69.6546 37.68 68.1666 36.912C66.7026 36.12 65.5386 35.016 64.6746 33.6C63.8106 32.184 63.3786 30.552 63.3786 28.704C63.3786 26.856 63.8106 25.224 64.6746 23.808C65.5386 22.392 66.7026 21.3 68.1666 20.532C69.6546 19.74 71.2866 19.344 73.0626 19.344C75.8706 19.344 78.0066 20.268 79.4706 22.116V19.632H84.7986ZM74.1786 33.456C75.6666 33.456 76.8786 33.024 77.8146 32.16C78.7746 31.272 79.2546 30.12 79.2546 28.704C79.2546 27.288 78.7746 26.148 77.8146 25.284C76.8786 24.396 75.6666 23.952 74.1786 23.952C72.6906 23.952 71.4666 24.396 70.5066 25.284C69.5466 26.148 69.0666 27.288 69.0666 28.704C69.0666 30.12 69.5466 31.272 70.5066 32.16C71.4666 33.024 72.6906 33.456 74.1786 33.456ZM106.449 18.48V25.14H118.113V29.82H106.449V39H100.617V13.8H119.661V18.48H106.449ZM123.213 12.288H128.829V39H123.213V12.288ZM183.599 29.388C183.599 29.46 183.563 29.964 183.491 30.9H168.839C169.103 32.1 169.727 33.048 170.711 33.744C171.695 34.44 172.919 34.788 174.383 34.788C175.391 34.788 176.279 34.644 177.047 34.356C177.839 34.044 178.571 33.564 179.243 32.916L182.231 36.156C180.407 38.244 177.743 39.288 174.239 39.288C172.055 39.288 170.123 38.868 168.443 38.028C166.763 37.164 165.467 35.976 164.555 34.464C163.643 32.952 163.187 31.236 163.187 29.316C163.187 27.42 163.631 25.716 164.519 24.204C165.431 22.668 166.667 21.48 168.227 20.64C169.811 19.776 171.575 19.344 173.519 19.344C175.415 19.344 177.131 19.752 178.667 20.568C180.203 21.384 181.403 22.56 182.267 24.096C183.155 25.608 183.599 27.372 183.599 29.388ZM173.555 23.592C172.283 23.592 171.215 23.952 170.351 24.672C169.487 25.392 168.959 26.376 168.767 27.624H178.307C178.115 26.4 177.587 25.428 176.723 24.708C175.859 23.964 174.803 23.592 173.555 23.592ZM192.702 22.188C193.374 21.252 194.274 20.544 195.402 20.064C196.554 19.584 197.874 19.344 199.362 19.344V24.528C198.738 24.48 198.318 24.456 198.102 24.456C196.494 24.456 195.234 24.912 194.322 25.824C193.41 26.712 192.954 28.056 192.954 29.856V39H187.338V19.632H192.702V22.188Z" fill="white"/>
<path d="M141.757 32.3326L156.182 21.8765C157.855 20.6654 158.674 18.7721 157.654 17.5959C156.711 16.5401 154.744 16.898 153.297 18.1085L148.383 22.2068C148.05 22.4852 147.775 22.58 147.243 22.5372L138.002 21.8531C137.681 21.8263 137.374 21.9225 137.131 22.1016L136.564 22.5554C136.325 22.7439 136.363 23.0944 136.694 23.2573L143.312 26.452L140.717 28.6184L135.632 28.7446C135.306 28.7624 135.081 28.9026 134.912 29.2466L134.729 29.6071C134.589 29.8863 134.68 30.152 134.943 30.2767L139.634 32.707C140.287 33.0364 141 32.8807 141.757 32.3326Z" fill="white"/>
<rect x="137" y="37" width="20" height="2" fill="white"/>
<defs>
<clipPath id="clip0_5_15">
<rect width="20" height="17.7778" fill="white" transform="translate(63)"/>
</clipPath>
</defs>
</svg>
